Coordinates
version=1
nRows=7
nColumns=40
inDegrees=yes

Units are S.I. units (second, meters, Newtons, ...)
If the header above contains a line with 'inDegrees', this indicates whether rotational values are in degrees (yes) or radians (no).

endheader
time	pelvis_tilt	pelvis_list	pelvis_rotation	pelvis_tx	pelvis_ty	pelvis_tz	hip_flexion_r	hip_adduction_r	hip_rotation_r	knee_angle_r	knee_angle_r_beta	ankle_angle_r	subtalar_angle_r	mtp_angle_r	hip_flexion_l	hip_adduction_l	hip_rotation_l	knee_angle_l	knee_angle_l_beta	ankle_angle_l	subtalar_angle_l	mtp_angle_l	lumbar_extension	lumbar_bending	lumbar_rotation	arm_flex_r	arm_add_r	arm_rot_r	elbow_flex_r	pro_sup_r	wrist_flex_r	wrist_dev_r	arm_flex_l	arm_add_l	arm_rot_l	elbow_flex_l	pro_sup_l	wrist_flex_l	wrist_dev_l
      2.20000000	    -19.35557084	     -3.01764922	      0.24852201	     -0.37657145	      0.81220863	     -0.72996714	     64.80576376	      7.65974471	     -3.51769504	     73.65237234	      1.28547640	     24.12874185	      0.00000000	      0.00000000	     31.83690504	     -4.25973537	      6.49864953	     99.75789513	      1.74110372	     -4.60725239	      0.00000000	      0.00000000	    -19.55508074	      5.54477654	      3.50931687	     89.93365180	    -13.53428859	      9.58129364	     56.71307091	     86.71741129	      0.00000000	      0.00000000	     89.93303109	     -6.79544791	      8.24520249	     52.05965552	     85.47911794	      0.00000000	      0.00000000
      2.20500000	    -19.42203790	     -3.10777945	      0.25054993	     -0.37673887	      0.81141817	     -0.72980349	     64.96801092	      7.72804484	     -3.59814406	     73.77303596	      1.28758238	     24.17819543	      0.00000000	      0.00000000	     31.91706220	     -4.33976618	      6.58816816	     99.86742473	      1.74301538	     -4.56564542	      0.00000000	      0.00000000	    -19.55655194	      5.61340346	      3.51828025	     89.93403474	    -13.52358954	      9.54363823	     56.79070101	     86.77862753	      0.00000000	      0.00000000	     89.93330238	     -6.80510650	      8.24586343	     52.13025759	     85.18842815	      0.00000000	      0.00000000
      2.21000000	    -19.45251124	     -3.20567658	      0.25835130	     -0.37691169	      0.81079228	     -0.72963642	     65.07241429	      7.79802302	     -3.68290756	     73.86018128	      1.28910335	     24.21003848	      0.00000000	      0.00000000	     31.95179256	     -4.43153166	      6.67366388	     99.95108563	      1.74447554	     -4.57543846	      0.00000000	      0.00000000	    -19.60461305	      5.68590083	      3.52276727	     89.93441415	    -13.50962346	      9.54512365	     56.85235837	     86.63370194	      0.00000000	      0.00000000	     89.93361897	     -6.79795292	      8.15435510	     52.20303737	     85.56253330	      0.00000000	      0.00000000
      2.21500000	    -19.59161638	     -3.20417762	      0.28348712	     -0.37721817	      0.80986516	     -0.72954368	     65.32955083	      7.78385983	     -3.68450173	     74.00544357	      1.29163865	     24.24788741	      0.00000000	      0.00000000	     32.12637016	     -4.38574501	      6.72602912	    100.05254608	      1.74624635	     -4.59334186	      0.00000000	      0.00000000	    -19.52154107	      5.67447732	      3.46931826	     89.93483882	    -13.47268738	      9.49500775	     56.90554214	     86.73756945	      0.00000000	      0.00000000	     89.93384050	     -6.79153648	      8.11577187	     52.24094861	     85.23669602	      0.00000000	      0.00000000
      2.22000000	    -19.58206059	     -3.32027358	      0.29895878	     -0.37729390	      0.80930804	     -0.72935071	     65.37831275	      7.85401143	     -3.79673993	     74.08060305	      1.29295044	     24.31216332	      0.00000000	      0.00000000	     32.11348259	     -4.48856287	      6.83584011	    100.13267999	      1.74764495	     -4.62519195	      0.00000000	      0.00000000	    -19.60784890	      5.76758239	      3.46862588	     89.93524715	    -13.43915189	      9.44470299	     56.95239056	     86.69357199	      0.00000000	      0.00000000	     89.93418015	     -6.77321828	      7.99900182	     52.29205904	     85.38660938	      0.00000000	      0.00000000
      2.22500000	    -19.58564183	     -3.45999697	      0.27535712	     -0.37732688	      0.80870039	     -0.72908376	     65.44428949	      7.98008245	     -3.91192197	     74.15729879	      1.29428903	     24.36496888	      0.00000000	      0.00000000	     32.09857430	     -4.65454973	      6.90834564	    100.20705076	      1.74894297	     -4.64948080	      0.00000000	      0.00000000	    -19.68042148	      5.88190295	      3.54626187	     89.93537087	    -13.46848559	      9.44901583	     57.03716785	     86.71134700	      0.00000000	      0.00000000	     89.93446995	     -6.76543494	      8.02411206	     52.36388302	     85.06774323	      0.00000000	      0.00000000
      2.23000000	    -19.67284361	     -3.50377491	      0.26592659	     -0.37750132	      0.80795176	     -0.72892573	     65.61561654	      8.02637793	     -3.93895688	     74.25869764	      1.29605877	     24.40897790	      0.00000000	      0.00000000	     32.18769040	     -4.68957467	      6.94800797	    100.29058533	      1.75040092	     -4.65977918	      0.00000000	      0.00000000	    -19.65663090	      5.89718105	      3.53487901	     89.93571629	    -13.43258848	      9.43499962	     57.06519906	     86.54979469	      0.00000000	      0.00000000	     89.93458396	     -6.77172887	      7.92583079	     52.40902471	     85.64251666	      0.00000000	      0.00000000
